<svg width="19" height="19" viewBox="0 0 19 19" fill="none" xmlns="http://www.w3.org/2000/svg">
<path fill-rule="evenodd" clip-rule="evenodd" d="M9.5 0.75C14.3325 0.75 18.25 4.66747 18.25 9.5C18.25 14.3325 14.3325 18.25 9.5 18.25C4.66752 18.25 0.75 14.3325 0.75 9.5C0.75 4.66747 4.66752 0.75 9.5 0.75ZM10.3769 8.625H8.62692V13.875H10.3769V8.625ZM9.50889 4.90625C8.87094 4.90625 8.40817 5.36646 8.40817 5.98786C8.40817 6.63441 8.85874 7.09375 9.50889 7.09375C10.1338 7.09375 10.5957 6.63441 10.5957 6C10.5957 5.36646 10.1338 4.90625 9.50889 4.90625Z" fill="#505050"/>
</svg>
