<svg width="36" height="37" viewBox="0 0 36 37" fill="none" xmlns="http://www.w3.org/2000/svg">
<rect y="0.5" width="36" height="36" rx="18" fill="#F6F7F9"/>
<path d="M14.3518 26.7418C15.1929 27.811 16.5142 28.5 18 28.5C19.4858 28.5 20.8071 27.811 21.6482 26.7418C19.2264 27.07 16.7736 27.07 14.3518 26.7418Z" fill="#FFC107"/>
<path d="M24.7491 15.5V16.2041C24.7491 17.0491 24.9903 17.8752 25.4422 18.5782L26.5496 20.3012C27.5612 21.8749 26.789 24.0139 25.0296 24.5116C20.4273 25.8134 15.5727 25.8134 10.9704 24.5116C9.21105 24.0139 8.43882 21.8749 9.45036 20.3012L10.5578 18.5782C11.0097 17.8752 11.2509 17.0491 11.2509 16.2041V15.5C11.2509 11.634 14.2726 8.5 18 8.5C21.7274 8.5 24.7491 11.634 24.7491 15.5Z" fill="#FFC107"/>
</svg>
