<svg width="26" height="26" viewBox="0 0 26 26" fill="none" xmlns="http://www.w3.org/2000/svg">
<path fill-rule="evenodd" clip-rule="evenodd" d="M10.5926 22.75H15.4074C18.7885 22.75 20.4791 22.75 21.6935 21.9533C22.2192 21.6084 22.6706 21.1652 23.0219 20.6491C23.8333 19.4567 23.8333 17.7969 23.8333 14.4773C23.8333 11.1576 23.8333 9.49782 23.0219 8.30549C22.6706 7.78931 22.2192 7.34613 21.6935 7.00123C20.9131 6.48931 19.9362 6.30633 18.4405 6.24093C17.7267 6.24093 17.1122 5.7099 16.9722 5.02273C16.7622 3.99196 15.8404 3.25 14.7698 3.25H11.2302C10.1595 3.25 9.23774 3.99196 9.02777 5.02273C8.88779 5.7099 8.27325 6.24093 7.55948 6.24093C6.06377 6.30633 5.08684 6.48931 4.3065 7.00123C3.78077 7.34613 3.32938 7.78931 2.9781 8.30549C2.16666 9.49782 2.16666 11.1576 2.16666 14.4773C2.16666 17.7969 2.16666 19.4567 2.9781 20.6491C3.32938 21.1652 3.78077 21.6084 4.3065 21.9533C5.52091 22.75 7.21147 22.75 10.5926 22.75ZM13 10.0455C10.507 10.0455 8.4861 12.0296 8.4861 14.4773C8.4861 16.9249 10.507 18.9091 13 18.9091C15.4929 18.9091 17.5139 16.9249 17.5139 14.4773C17.5139 12.0296 15.4929 10.0455 13 10.0455ZM13 11.8182C11.5042 11.8182 10.2917 13.0087 10.2917 14.4773C10.2917 15.9458 11.5042 17.1364 13 17.1364C14.4958 17.1364 15.7083 15.9458 15.7083 14.4773C15.7083 13.0087 14.4958 11.8182 13 11.8182ZM18.1157 10.9318C18.1157 10.4423 18.5199 10.0455 19.0185 10.0455H20.2222C20.7208 10.0455 21.125 10.4423 21.125 10.9318C21.125 11.4213 20.7208 11.8182 20.2222 11.8182H19.0185C18.5199 11.8182 18.1157 11.4213 18.1157 10.9318Z" fill="white"/>
</svg>
