<svg width="35" height="35" viewBox="0 0 35 35" fill="none" xmlns="http://www.w3.org/2000/svg">
<path d="M14.5833 13.1249C14.5833 11.5141 15.8891 10.2083 17.4999 10.2083C19.1107 10.2083 20.4165 11.5141 20.4165 13.1249C20.4165 14.7357 19.1107 16.0416 17.4999 16.0416C15.8891 16.0416 14.5833 14.7357 14.5833 13.1249Z" fill="#5151C6"/>
<path d="M16.0415 18.2292C13.6253 18.2292 11.6666 20.1879 11.6666 22.6042C11.6666 23.4095 12.3195 24.0625 13.1249 24.0625H21.8748C22.6803 24.0625 23.3332 23.4095 23.3332 22.6042C23.3332 20.1879 21.3745 18.2292 18.9582 18.2292H16.0415Z" fill="#5151C6"/>
<path fill-rule="evenodd" clip-rule="evenodd" d="M11.0009 4.20388C15.3115 3.58447 19.6884 3.58447 23.9989 4.20388C26.1361 4.51099 27.7827 6.24552 27.9783 8.39577L28.1635 10.4312C28.5913 15.134 28.5913 19.8659 28.1635 24.5687L27.9783 26.6041C27.7827 28.7544 26.1361 30.489 23.9989 30.7961C19.6884 31.4154 15.3115 31.4154 11.0009 30.7961C8.86371 30.489 7.21711 28.7544 7.0215 26.6041L6.83635 24.5687C6.40855 19.8659 6.40855 15.134 6.83635 10.4312L7.0215 8.39577C7.21711 6.24552 8.86371 4.51099 11.0009 4.20388ZM23.6878 6.36914C19.5837 5.77939 15.4162 5.77939 11.312 6.36914C10.1777 6.53214 9.30383 7.45272 9.20002 8.59394L9.01486 10.6294C8.59904 15.2004 8.59904 19.7997 9.01486 24.3705L9.20002 26.4061C9.30383 27.5472 10.1777 28.4679 11.312 28.6308C15.4162 29.2205 19.5837 29.2205 23.6878 28.6308C24.8221 28.4679 25.696 27.5472 25.7998 26.4061L25.985 24.3705C26.4008 19.7997 26.4008 15.2004 25.985 10.6294L25.7998 8.59394C25.696 7.45272 24.8221 6.53214 23.6878 6.36914Z" fill="#5151C6"/>
</svg>
