<svg width="26" height="26" viewBox="0 0 26 26" fill="none" xmlns="http://www.w3.org/2000/svg">
<path fill-rule="evenodd" clip-rule="evenodd" d="M15.1667 23.8334H10.8334C6.74785 23.8334 4.70509 23.8334 3.43589 22.5642C2.16669 21.295 2.16669 19.2523 2.16669 15.1667V10.8334C2.16669 6.74791 2.16669 4.70516 3.43589 3.43595C4.70509 2.16675 6.75861 2.16675 10.8656 2.16675C11.5221 2.16675 12.0482 2.16675 12.4909 2.1848C12.4763 2.27139 12.4687 2.35972 12.4684 2.44903L12.4583 5.51963C12.4583 6.70816 12.4582 7.75853 12.572 8.60517C12.6954 9.52288 12.9787 10.4404 13.7276 11.1893C14.4764 11.9382 15.394 12.2215 16.3117 12.3449C17.1584 12.4587 18.2087 12.4586 19.3973 12.4585L19.5 12.4585H23.7872C23.8334 13.0373 23.8334 13.7477 23.8334 14.6932V15.1667C23.8334 19.2523 23.8334 21.295 22.5641 22.5642C21.2949 23.8334 19.2522 23.8334 15.1667 23.8334ZM5.68752 15.7084C5.68752 15.2597 6.05129 14.8959 6.50002 14.8959H15.1667C15.6154 14.8959 15.9792 15.2597 15.9792 15.7084C15.9792 16.1571 15.6154 16.5209 15.1667 16.5209H6.50002C6.05129 16.5209 5.68752 16.1571 5.68752 15.7084ZM5.68752 19.5001C5.68752 19.0513 6.05129 18.6876 6.50002 18.6876H12.4584C12.9071 18.6876 13.2709 19.0513 13.2709 19.5001C13.2709 19.9488 12.9071 20.3126 12.4584 20.3126H6.50002C6.05129 20.3126 5.68752 19.9488 5.68752 19.5001Z" fill="white"/>
<path d="M20.9644 8.25145L16.6757 4.39165C15.4539 3.29198 14.8429 2.74215 14.0933 2.45451L14.0834 5.41686C14.0834 7.9703 14.0834 9.24703 14.8766 10.0403C15.6699 10.8335 16.9466 10.8335 19.5 10.8335H23.3785C22.9857 10.0706 22.2824 9.43769 20.9644 8.25145Z" fill="white"/>
</svg>
