<svg width="23" height="23" viewBox="0 0 23 23" fill="none" xmlns="http://www.w3.org/2000/svg">
<path d="M11.5 14.3753C11.7715 14.3753 11.9993 14.2833 12.1833 14.0993C12.3673 13.9153 12.4589 13.6879 12.4583 13.417C12.4583 13.1455 12.3663 12.9177 12.1823 12.7337C11.9983 12.5497 11.7709 12.458 11.5 12.4587C11.2284 12.4587 11.0007 12.5507 10.8167 12.7347C10.6327 12.9187 10.541 13.1461 10.5416 13.417C10.5416 13.6885 10.6336 13.9163 10.8176 14.1003C11.0016 14.2843 11.2291 14.376 11.5 14.3753ZM11.5 10.542C11.7715 10.542 11.9993 10.45 12.1833 10.266C12.3673 10.082 12.4589 9.85455 12.4583 9.58366V5.75033C12.4583 5.4788 12.3663 5.25104 12.1823 5.06704C11.9983 4.88304 11.7709 4.79136 11.5 4.79199C11.2284 4.79199 11.0007 4.88399 10.8167 5.06799C10.6327 5.25199 10.541 5.47944 10.5416 5.75033V9.58366C10.5416 9.71144 10.5656 9.83538 10.6135 9.95549C10.6614 10.0756 10.7295 10.1791 10.8176 10.266C10.9052 10.3542 11.0087 10.4222 11.1281 10.4701C11.2476 10.518 11.3715 10.542 11.5 10.542ZM5.74996 17.2503L3.54579 19.4545C3.24232 19.758 2.89477 19.826 2.50313 19.6586C2.11149 19.4912 1.91599 19.1916 1.91663 18.7597V3.83366C1.91663 3.30658 2.10446 2.8552 2.48013 2.47954C2.85579 2.10387 3.30685 1.91635 3.83329 1.91699H19.1666C19.6937 1.91699 20.1451 2.10483 20.5208 2.48049C20.8964 2.85616 21.0839 3.30722 21.0833 3.83366V15.3337C21.0833 15.8607 20.8955 16.3121 20.5198 16.6878C20.1441 17.0635 19.6931 17.251 19.1666 17.2503H5.74996Z" fill="#5151C6"/>
</svg>
