<svg width="13" height="12" viewBox="0 0 13 12" fill="none" xmlns="http://www.w3.org/2000/svg">
<path d="M6.50001 10.2916C6.91422 10.2916 7.25001 9.95584 7.25001 9.54163C7.25001 9.12741 6.91422 8.79163 6.50001 8.79163V10.2916ZM0.833344 8.79163C0.41913 8.79163 0.0833436 9.12741 0.0833435 9.54163C0.0833434 9.95584 0.41913 10.2916 0.833343 10.2916L0.833344 8.79163ZM6.50001 1.70829C6.0858 1.70829 5.75001 2.04408 5.75001 2.45829C5.75001 2.87251 6.0858 3.20829 6.50001 3.20829V1.70829ZM12.1667 3.20829C12.5809 3.20829 12.9167 2.87251 12.9167 2.45829C12.9167 2.04408 12.5809 1.70829 12.1667 1.70829V3.20829ZM6.50001 8.79163L0.833344 8.79163L0.833343 10.2916L6.50001 10.2916V8.79163ZM6.50001 3.20829L12.1667 3.20829V1.70829L6.50001 1.70829V3.20829ZM0.0833435 2.45829C0.0833435 3.65491 1.05339 4.62496 2.25001 4.62496V3.12496C1.88182 3.12496 1.58334 2.82648 1.58334 2.45829H0.0833435ZM2.25001 4.62496C3.44663 4.62496 4.41668 3.65491 4.41668 2.45829H2.91668C2.91668 2.82648 2.6182 3.12496 2.25001 3.12496V4.62496ZM4.41668 2.45829C4.41668 1.26168 3.44663 0.291626 2.25001 0.291626V1.79163C2.6182 1.79163 2.91668 2.0901 2.91668 2.45829H4.41668ZM2.25001 0.291626C1.05339 0.291626 0.0833435 1.26168 0.0833435 2.45829H1.58334C1.58334 2.0901 1.88182 1.79163 2.25001 1.79163V0.291626ZM12.9167 9.54163C12.9167 8.34501 11.9466 7.37496 10.75 7.37496V8.87496C11.1182 8.87496 11.4167 9.17344 11.4167 9.54163H12.9167ZM10.75 7.37496C9.55339 7.37496 8.58334 8.34501 8.58334 9.54163H10.0833C10.0833 9.17344 10.3818 8.87496 10.75 8.87496V7.37496ZM8.58334 9.54163C8.58334 10.7382 9.55339 11.7083 10.75 11.7083V10.2083C10.3818 10.2083 10.0833 9.90982 10.0833 9.54163H8.58334ZM10.75 11.7083C11.9466 11.7083 12.9167 10.7382 12.9167 9.54163H11.4167C11.4167 9.90982 11.1182 10.2083 10.75 10.2083V11.7083Z" fill="#505050"/>
</svg>
