<svg width="21" height="18" viewBox="0 0 21 18" fill="none" xmlns="http://www.w3.org/2000/svg">
<path d="M8.1 0.319837C7.33614 0.31984 6.58945 0.546479 5.95446 0.971065C5.31947 1.39565 4.82474 1.99909 4.53288 2.705C4.24102 3.4109 4.16517 4.18753 4.31492 4.93657C4.46467 5.68561 4.83329 6.37338 5.37412 6.91281C5.91495 7.45224 6.60368 7.81908 7.3531 7.96688C8.10252 8.11469 8.87895 8.03682 9.5841 7.74313C10.2892 7.44945 10.8914 6.95314 11.3143 6.31706C11.7373 5.68097 11.962 4.9337 11.96 4.16984C11.96 3.66341 11.8601 3.16195 11.666 2.69419C11.4719 2.22644 11.1874 1.80157 10.8288 1.44393C10.4703 1.0863 10.0447 0.802918 9.5764 0.610026C9.10814 0.417134 8.60643 0.318522 8.1 0.319837ZM14.85 7.99984C14.7906 8.00102 14.7334 8.0225 14.6879 8.0607C14.6424 8.09891 14.6114 8.15154 14.6 8.20984L14.42 9.47984C14.1322 9.60177 13.8574 9.75254 13.6 9.92984L12.4 9.44984C12.3428 9.44017 12.284 9.4473 12.2307 9.47038C12.1775 9.49345 12.1321 9.53147 12.1 9.57984L11.1 11.2398C11.0708 11.29 11.0608 11.3491 11.0718 11.4061C11.0829 11.4631 11.1142 11.5142 11.16 11.5498L12.16 12.3398C12.1175 12.6718 12.1175 13.0079 12.16 13.3398L11.16 14.1298C11.115 14.1638 11.0839 14.2131 11.0729 14.2684C11.0618 14.3237 11.0715 14.3812 11.1 14.4298L12.1 16.0998C12.16 16.2298 12.29 16.2298 12.4 16.2298L13.6 15.7398C13.8535 15.9261 14.1289 16.0806 14.42 16.1998L14.6 17.4698C14.6098 17.5281 14.6407 17.5807 14.6868 17.6176C14.7329 17.6545 14.791 17.6731 14.85 17.6698H16.78C16.8356 17.6683 16.8889 17.6475 16.9308 17.611C16.9728 17.5746 17.0008 17.5247 17.01 17.4698L17.19 16.1998C17.4737 16.072 17.7449 15.918 18 15.7398L19.19 16.2298C19.31 16.2298 19.44 16.2298 19.51 16.0998L20.51 14.4298C20.5385 14.3812 20.5482 14.3237 20.5371 14.2684C20.5261 14.2131 20.495 14.1638 20.45 14.1298L19.45 13.3398C19.46 13.1767 19.46 13.013 19.45 12.8498C19.4644 12.6902 19.4644 12.5295 19.45 12.3698L20.45 11.5798C20.4941 11.543 20.5242 11.492 20.5351 11.4355C20.5461 11.379 20.5372 11.3205 20.51 11.2698L19.51 9.60984C19.45 9.47984 19.32 9.47984 19.2 9.47984L18 9.99984C17.7449 9.81882 17.4697 9.66783 17.18 9.54984L17 8.27984C16.9952 8.22405 16.9702 8.17195 16.9297 8.13328C16.8892 8.09462 16.8359 8.07206 16.78 8.06984H14.96M8.21 9.99984C3.95 9.99984 0.5 11.6998 0.5 13.8298V15.7498H9.83C9.40905 14.8605 9.1907 13.8888 9.1907 12.9048C9.1907 11.9209 9.40905 10.9492 9.83 10.0598C9.29168 10.0075 8.75071 9.98751 8.21 9.99984ZM15.81 11.4298C16.0099 11.4132 16.211 11.4382 16.4007 11.5033C16.5904 11.5683 16.7646 11.672 16.9122 11.8078C17.0597 11.9436 17.1775 12.1086 17.2581 12.2922C17.3387 12.4759 17.3803 12.6743 17.3803 12.8748C17.3803 13.0754 17.3387 13.2738 17.2581 13.4574C17.1775 13.6411 17.0597 13.806 16.9122 13.9418C16.7646 14.0776 16.5904 14.1813 16.4007 14.2464C16.211 14.3115 16.0099 14.3365 15.81 14.3198C15.4475 14.2897 15.1096 14.1243 14.8633 13.8567C14.617 13.589 14.4803 13.2386 14.4803 12.8748C14.4803 12.5111 14.617 12.1606 14.8633 11.893C15.1096 11.6253 15.4475 11.46 15.81 11.4298Z" fill="#505050"/>
</svg>
