<svg width="26" height="26" viewBox="0 0 26 26" fill="none" xmlns="http://www.w3.org/2000/svg">
<path d="M19.5 8.66675C19.5 9.86336 18.5299 10.8334 17.3333 10.8334C16.1367 10.8334 15.1667 9.86336 15.1667 8.66675C15.1667 7.47013 16.1367 6.50008 17.3333 6.50008C18.5299 6.50008 19.5 7.47013 19.5 8.66675Z" fill="white"/>
<path fill-rule="evenodd" clip-rule="evenodd" d="M12.9378 1.35425H13.0621C15.5629 1.35423 17.5227 1.35422 19.0518 1.55981C20.6169 1.77023 21.852 2.20935 22.8213 3.17873C23.7907 4.14811 24.2298 5.38313 24.4403 6.94826C24.6458 8.47737 24.6458 10.4372 24.6458 12.9379V13.0336C24.6458 15.1014 24.6458 16.7942 24.5335 18.1725C24.4207 19.5576 24.1894 20.715 23.6718 21.6762C23.4435 22.1002 23.1629 22.4799 22.8213 22.8214C21.852 23.7908 20.6169 24.2299 19.0518 24.4404C17.5227 24.6459 15.5629 24.6459 13.0621 24.6459H12.9378C10.4371 24.6459 8.47728 24.6459 6.94817 24.4404C5.38304 24.2299 4.14802 23.7908 3.17864 22.8214C2.31925 21.962 1.87546 20.8924 1.63945 19.5655C1.40762 18.2621 1.36521 16.6404 1.3564 14.6267C1.35416 14.1145 1.35416 13.5727 1.35416 13.0012V12.9379C1.35414 10.4372 1.35413 8.47737 1.55972 6.94826C1.77014 5.38313 2.20926 4.14811 3.17864 3.17873C4.14802 2.20935 5.38304 1.77023 6.94817 1.55981C8.47728 1.35422 10.4371 1.35423 12.9378 1.35425ZM7.1647 3.17032C5.77976 3.35652 4.94481 3.71065 4.32769 4.32778C3.71056 4.94491 3.35643 5.77985 3.17023 7.16479C2.98088 8.5731 2.97916 10.4237 2.97916 13.0001C2.97916 13.3148 2.97916 13.6192 2.97953 13.9139L4.06409 12.9649C5.0513 12.1011 6.53917 12.1506 7.46673 13.0782L12.1139 17.7254C12.8584 18.4699 14.0304 18.5714 14.8918 17.966L15.2149 17.739C16.4544 16.8678 18.1315 16.9687 19.2577 17.9823L22.324 20.742C22.6327 20.0937 22.816 19.242 22.9139 18.0405C23.0202 16.7357 23.0208 15.1081 23.0208 13.0001C23.0208 10.4237 23.0191 8.5731 22.8298 7.16479C22.6436 5.77985 22.2894 4.94491 21.6723 4.32778C21.0552 3.71065 20.2202 3.35652 18.8353 3.17032C17.427 2.98097 15.5764 2.97925 13 2.97925C10.4236 2.97925 8.57301 2.98097 7.1647 3.17032Z" fill="white"/>
</svg>
