<svg width="21" height="20" viewBox="0 0 21 20" fill="none" xmlns="http://www.w3.org/2000/svg">
<path fill-rule="evenodd" clip-rule="evenodd" d="M18.3 8.18C17.99 5 16.11 0 10.3 0C4.49005 0 2.61005 5 2.30005 8.18C1.21256 8.59273 0.495235 9.63683 0.500024 10.8V12.2C0.500024 13.7464 1.75365 15 3.30005 15C4.84645 15 6.10005 13.7464 6.10005 12.2V10.8C6.09502 9.66194 5.40404 8.6393 4.35005 8.21C4.55005 6.37 5.53005 2 10.3 2C15.07 2 16.04 6.37 16.24 8.21C15.1882 8.64023 14.5007 9.66356 14.5 10.8V12.2C14.5044 13.275 15.1217 14.2533 16.09 14.72C15.67 15.51 14.6 16.58 11.97 16.9C11.4443 16.1017 10.4272 15.787 9.54249 16.1489C8.65779 16.5108 8.15283 17.4481 8.33733 18.386C8.52182 19.3239 9.34418 20 10.3 20C11.0554 19.9958 11.7439 19.5664 12.08 18.89C16.37 18.4 17.74 16.19 18.17 14.89C19.3334 14.5132 20.1157 13.4227 20.1 12.2V10.8C20.1049 9.63683 19.3875 8.59273 18.3 8.18ZM4.10005 12.2C4.10005 12.6418 3.74188 13 3.30005 13C2.85822 13 2.50005 12.6418 2.50005 12.2V10.8C2.50005 10.5142 2.65253 10.2501 2.90005 10.1072C3.14757 9.96427 3.45253 9.96427 3.70005 10.1072C3.94757 10.2501 4.10005 10.5142 4.10005 10.8V12.2ZM16.5 10.8C16.5 10.3582 16.8582 10 17.3 10C17.7419 10 18.1 10.3582 18.1 10.8V12.2C18.1 12.6418 17.7419 13 17.3 13C16.8582 13 16.5 12.6418 16.5 12.2V10.8Z" fill="#505050"/>
</svg>
