<svg width="21" height="21" viewBox="0 0 21 21" fill="none" xmlns="http://www.w3.org/2000/svg">
<path fill-rule="evenodd" clip-rule="evenodd" d="M1.75 10.5C1.75 5.66751 5.66751 1.75 10.5 1.75C15.3324 1.75 19.25 5.66751 19.25 10.5C19.25 15.3324 15.3324 19.25 10.5 19.25C5.66751 19.25 1.75 15.3324 1.75 10.5ZM10.5 7.875C10.2388 7.875 10.0051 7.98836 9.84349 8.17147C9.52376 8.53378 8.97076 8.56825 8.60849 8.24848C8.24617 7.92869 8.2117 7.37574 8.53148 7.01343C9.01119 6.46992 9.71582 6.125 10.5 6.125C11.9498 6.125 13.125 7.30026 13.125 8.75C13.125 9.8938 12.3941 10.865 11.375 11.2254V11.375C11.375 11.8583 10.9833 12.25 10.5 12.25C10.0167 12.25 9.625 11.8583 9.625 11.375V10.9375C9.625 10.1748 10.2264 9.723 10.7172 9.59805C11.0959 9.50162 11.375 9.15731 11.375 8.75C11.375 8.26675 10.9833 7.875 10.5 7.875ZM10.5 13.125C10.0167 13.125 9.625 13.5167 9.625 14C9.625 14.4833 10.0167 14.875 10.5 14.875H10.5087C10.992 14.875 11.3837 14.4833 11.3837 14C11.3837 13.5167 10.992 13.125 10.5087 13.125H10.5Z" fill="#505050"/>
</svg>
