<svg width="21" height="20" viewBox="0 0 21 20" fill="none" xmlns="http://www.w3.org/2000/svg">
<path d="M14.69 0H6.31C2.67 0 0.5 2.17 0.5 5.81V14.18C0.5 17.83 2.67 20 6.31 20H14.68C18.32 20 20.49 17.83 20.49 14.19V5.81C20.5 2.17 18.33 0 14.69 0ZM15.5 15.47C13.79 15.47 12.19 14.73 10.91 13.36C9.46 14.67 7.57 15.47 5.5 15.47C5.09 15.47 4.75 15.13 4.75 14.72C4.75 14.31 5.09 13.97 5.5 13.97C8.97 13.97 11.84 11.22 12.21 7.7H10.5H5.51C5.1 7.7 4.76 7.36 4.76 6.95C4.76 6.54 5.1 6.21 5.51 6.21H9.75V5.28C9.75 4.87 10.09 4.53 10.5 4.53C10.91 4.53 11.25 4.87 11.25 5.28V6.21H12.94C12.96 6.21 12.98 6.2 13 6.2C13.02 6.2 13.04 6.21 13.06 6.21H15.49C15.9 6.21 16.24 6.55 16.24 6.96C16.24 7.37 15.9 7.71 15.49 7.71H13.71C13.56 9.42 12.92 10.99 11.94 12.27C12.94 13.38 14.19 13.98 15.5 13.98C15.91 13.98 16.25 14.32 16.25 14.73C16.25 15.14 15.91 15.47 15.5 15.47Z" fill="#505050"/>
</svg>
