<svg width="60" height="60" viewBox="0 0 60 60" fill="none" xmlns="http://www.w3.org/2000/svg">
<path d="M35 25C35 23.6193 33.8808 22.5 32.5 22.5H31.25C23.6561 22.5 17.5 28.656 17.5 36.25C17.5 43.844 23.6561 50 31.25 50H43.75C51.344 50 57.5 43.844 57.5 36.25C57.5 30.0227 53.3602 24.7622 47.6825 23.0706C46.2745 22.6511 45 23.8222 45 25.2915V25.4207C45 26.6647 45.9362 27.6838 47.0862 28.1585C50.2637 29.47 52.5 32.5988 52.5 36.25C52.5 41.0825 48.5825 45 43.75 45H31.25C26.4175 45 22.5 41.0825 22.5 36.25C22.5 31.4175 26.4175 27.5 31.25 27.5H32.5C33.8808 27.5 35 26.3807 35 25Z" fill="#5151C6"/>
<path d="M28.75 10C36.344 10 42.5 16.1561 42.5 23.75C42.5 31.344 36.344 37.5 28.75 37.5H27.5C26.1192 37.5 25 36.3808 25 35C25 33.6192 26.1192 32.5 27.5 32.5H28.75C33.5825 32.5 37.5 28.5825 37.5 23.75C37.5 18.9175 33.5825 15 28.75 15H16.25C11.4175 15 7.5 18.9175 7.5 23.75C7.5 27.4013 9.73628 30.53 12.9138 31.8415C14.0637 32.316 15 33.3353 15 34.5793V34.7085C15 36.1777 13.7256 37.349 12.3175 36.9295C6.6398 35.2378 2.5 29.9772 2.5 23.75C2.5 16.1561 8.65608 10 16.25 10H28.75Z" fill="#5151C6"/>
</svg>
