<svg width="26" height="26" viewBox="0 0 26 26" fill="none" xmlns="http://www.w3.org/2000/svg">
<path fill-rule="evenodd" clip-rule="evenodd" d="M13 2.16675C8.21354 2.16675 4.33334 6.50288 4.33334 11.3751C4.33334 16.2091 7.09944 21.4635 11.4152 23.4807C12.4212 23.951 13.5788 23.951 14.5849 23.4807C18.9006 21.4635 21.6667 16.2091 21.6667 11.3751C21.6667 6.50288 17.7865 2.16675 13 2.16675ZM13 13.0001C14.1966 13.0001 15.1667 12.03 15.1667 10.8334C15.1667 9.6368 14.1966 8.66675 13 8.66675C11.8034 8.66675 10.8333 9.6368 10.8333 10.8334C10.8333 12.03 11.8034 13.0001 13 13.0001Z" fill="white"/>
</svg>
