<svg width="26" height="26" viewBox="0 0 26 26" fill="none" xmlns="http://www.w3.org/2000/svg">
<path fill-rule="evenodd" clip-rule="evenodd" d="M2.4375 12.9999C2.4375 11.3546 3.77132 10.0208 5.41667 10.0208C7.06202 10.0208 8.39583 11.3546 8.39583 12.9999C8.39583 14.6453 7.06202 15.9791 5.41667 15.9791C3.77132 15.9791 2.4375 14.6453 2.4375 12.9999ZM5.41667 11.6458C4.66878 11.6458 4.0625 12.252 4.0625 12.9999C4.0625 13.7478 4.66878 14.3541 5.41667 14.3541C6.16455 14.3541 6.77083 13.7478 6.77083 12.9999C6.77083 12.252 6.16455 11.6458 5.41667 11.6458Z" fill="#2C2D3A"/>
<path fill-rule="evenodd" clip-rule="evenodd" d="M10.0208 12.9999C10.0208 11.3546 11.3547 10.0208 13 10.0208C14.6453 10.0208 15.9792 11.3546 15.9792 12.9999C15.9792 14.6453 14.6453 15.9791 13 15.9791C11.3547 15.9791 10.0208 14.6453 10.0208 12.9999ZM13 11.6458C12.2521 11.6458 11.6458 12.252 11.6458 12.9999C11.6458 13.7478 12.2521 14.3541 13 14.3541C13.7479 14.3541 14.3542 13.7478 14.3542 12.9999C14.3542 12.252 13.7479 11.6458 13 11.6458Z" fill="#2C2D3A"/>
<path fill-rule="evenodd" clip-rule="evenodd" d="M20.5833 10.0208C18.938 10.0208 17.6042 11.3546 17.6042 12.9999C17.6042 14.6453 18.938 15.9791 20.5833 15.9791C22.2287 15.9791 23.5625 14.6453 23.5625 12.9999C23.5625 11.3546 22.2287 10.0208 20.5833 10.0208ZM19.2292 12.9999C19.2292 12.252 19.8354 11.6458 20.5833 11.6458C21.3312 11.6458 21.9375 12.252 21.9375 12.9999C21.9375 13.7478 21.3312 14.3541 20.5833 14.3541C19.8354 14.3541 19.2292 13.7478 19.2292 12.9999Z" fill="#2C2D3A"/>
</svg>
