<svg width="26" height="26" viewBox="0 0 26 26" fill="none" xmlns="http://www.w3.org/2000/svg">
<path d="M10.5625 8.39592C10.5625 7.94718 10.1987 7.58342 9.75001 7.58342H8.46731H6.82335C7.22148 4.52704 9.83511 2.16675 13 2.16675C16.1649 2.16675 18.7785 4.52704 19.1767 7.58342H17.5327L14.625 7.58342C14.1763 7.58342 13.8125 7.94718 13.8125 8.39592C13.8125 8.84465 14.1763 9.20842 14.625 9.20842L17.6042 9.20842H19.2292V10.8334H17.6042H14.625C14.1763 10.8334 13.8125 11.1972 13.8125 11.6459C13.8125 12.0946 14.1763 12.4584 14.625 12.4584H17.5327H19.1767C18.7785 15.5148 16.1649 17.8751 13 17.8751C9.83511 17.8751 7.22148 15.5148 6.82335 12.4584H8.46731H9.75001C10.1987 12.4584 10.5625 12.0946 10.5625 11.6459C10.5625 11.1972 10.1987 10.8334 9.75001 10.8334H8.39584H6.77084V9.20842H8.39584H9.75001C10.1987 9.20842 10.5625 8.84465 10.5625 8.39592Z" fill="white"/>
<path fill-rule="evenodd" clip-rule="evenodd" d="M4.33334 9.75008C4.78207 9.75008 5.14584 10.1139 5.14584 10.5626V11.6459C5.14584 15.9837 8.66227 19.5001 13 19.5001C17.3377 19.5001 20.8542 15.9837 20.8542 11.6459V10.5626C20.8542 10.1139 21.2179 9.75008 21.6667 9.75008C22.1154 9.75008 22.4792 10.1139 22.4792 10.5626V11.6459C22.4792 16.6074 18.6674 20.6786 13.8125 21.0907V23.5626C13.8125 24.0113 13.4487 24.3751 13 24.3751C12.5513 24.3751 12.1875 24.0113 12.1875 23.5626V21.0907C7.33266 20.6786 3.52084 16.6074 3.52084 11.6459V10.5626C3.52084 10.1139 3.88461 9.75008 4.33334 9.75008Z" fill="white"/>
</svg>
