<svg width="26" height="26" viewBox="0 0 26 26" fill="none" xmlns="http://www.w3.org/2000/svg">
<path d="M15.8307 6.44882V10.8989L17.3875 11.8779C17.4437 11.8903 17.5019 11.8903 17.5581 11.8779L24.2515 7.36532C24.2466 7.14631 24.1665 6.93566 24.0246 6.76876C23.8827 6.60186 23.6877 6.48889 23.4723 6.44882H15.8307Z" fill="#0072C6"/>
<path d="M15.8308 12.5588L17.2502 13.5338C17.3167 13.5743 17.393 13.5957 17.4708 13.5957C17.5486 13.5957 17.6249 13.5743 17.6914 13.5338C17.4476 13.6809 24.2507 9.16418 24.2507 9.16418V17.3428C24.2684 17.5085 24.2498 17.6761 24.1959 17.8339C24.1421 17.9916 24.0545 18.1357 23.9392 18.2561C23.8239 18.3764 23.6837 18.4701 23.5284 18.5306C23.3731 18.5911 23.2064 18.6169 23.0401 18.6062H15.8299L15.8308 12.5588ZM8.48251 10.5072C8.24667 10.5061 8.01491 10.5688 7.81179 10.6887C7.60868 10.8085 7.44177 10.9811 7.32876 11.1881C7.0201 11.7369 6.87201 12.3613 6.90139 12.9902C6.86931 13.6178 7.01761 14.2415 7.32876 14.7875C7.4413 14.986 7.60409 15.1514 7.80079 15.267C7.99749 15.3826 8.22116 15.4445 8.44932 15.4463C8.67748 15.4481 8.90211 15.3898 9.10061 15.2773C9.29912 15.1648 9.46452 15.002 9.5802 14.8054C9.88796 14.2619 10.0332 13.6415 9.99864 13.0179C10.0339 12.3747 9.89345 11.734 9.59239 11.1646C9.4848 10.9643 9.32455 10.7972 9.12895 10.6814C8.93336 10.5656 8.70983 10.5053 8.48251 10.5072Z" fill="#0072C6"/>
<path d="M1.74927 4.18844V21.5979L14.993 24.375V1.625L1.74927 4.18844ZM10.612 15.8364C10.3643 16.1857 10.0349 16.4691 9.65248 16.6618C9.2701 16.8545 8.84639 16.9508 8.41827 16.9422C8.00092 16.9497 7.58796 16.8562 7.21451 16.6697C6.84105 16.4833 6.51815 16.2094 6.27327 15.8714C5.69248 15.0605 5.40195 14.0776 5.44858 13.0813C5.39917 12.0361 5.69496 11.0037 6.29033 10.1433C6.5412 9.78732 6.87579 9.49857 7.2646 9.30247C7.6534 9.10637 8.08448 9.00893 8.51983 9.01875C8.93415 9.01044 9.34418 9.10395 9.71392 9.29109C10.0837 9.47823 10.4018 9.75327 10.6405 10.0921C11.2154 10.9205 11.501 11.9155 11.453 12.9228C11.5036 13.9604 11.2078 14.9854 10.612 15.8364Z" fill="#0072C6"/>
</svg>
