<svg width="208" height="208" viewBox="0 0 208 208" fill="none" xmlns="http://www.w3.org/2000/svg">
<path opacity="0.5" d="M26 90.278C26 62.5653 26 48.7091 29.2718 44.0475C32.5436 39.386 45.5721 34.9263 71.6292 26.0068L76.5936 24.3076C90.1767 19.6581 96.9679 17.3333 104 17.3333C111.032 17.3333 117.823 19.6581 131.407 24.3076L136.371 26.0068C162.428 34.9263 175.457 39.386 178.728 44.0475C182 48.7091 182 62.5653 182 90.278V103.925C182 152.788 145.262 176.501 122.212 186.57C115.96 189.301 112.834 190.667 104 190.667C95.1661 190.667 92.04 189.301 85.7875 186.57C62.7377 176.501 26 152.788 26 103.925V90.278Z" fill="#5151C6"/>
<path d="M117 130C117 134.787 113.12 138.667 108.333 138.667H99.6667C94.8801 138.667 91 134.787 91 130V117.855C83.2286 113.359 78 104.957 78 95.3333C78 80.9739 89.6402 69.3333 104 69.3333C118.36 69.3333 130 80.9739 130 95.3333C130 104.957 124.771 113.359 117 117.855V130Z" fill="#5151C6"/>
</svg>
