<svg width="24" height="24" viewBox="0 0 24 24" fill="none" xmlns="http://www.w3.org/2000/svg">
<path d="M16.3862 12.9522L16.3862 12.9522L20.8141 14.9365C20.8142 14.9365 20.8144 14.9366 20.8145 14.9367C21.0931 15.0583 21.3251 15.2666 21.4759 15.5306C21.6268 15.7947 21.6883 16.1005 21.6515 16.4024L21.6513 16.4034C21.4869 17.6525 20.8734 18.799 19.9254 19.6288C18.9774 20.4586 17.7597 20.9149 16.4998 20.9125M16.3862 12.9522L8.90739 11.3756C8.90739 11.3669 8.90884 11.3582 8.91167 11.35M16.3862 12.9522L16.3847 12.9515C16.1688 12.859 15.9331 12.8218 15.6992 12.8433C15.4655 12.8647 15.2409 12.9441 15.0456 13.0741M16.3862 12.9522L8.91545 11.4104C9.62633 12.857 11.1506 14.3723 12.6179 15.0809C12.6285 15.0856 12.6399 15.0878 12.6515 15.0874C12.6606 15.0871 12.6695 15.0851 12.6779 15.0817L14.9822 13.1218C14.9823 13.1216 14.9825 13.1215 14.9827 13.1213C15.0025 13.1041 15.0235 13.0883 15.0456 13.0741M16.4998 20.9125L16.5 20.8125V20.9125C16.4999 20.9125 16.4999 20.9125 16.4998 20.9125ZM16.4998 20.9125C9.10409 20.9124 3.08757 14.8958 3.08751 7.5001C3.08492 6.24019 3.54116 5.02245 4.37097 4.07441C5.20081 3.12635 6.34747 2.51288 7.59666 2.34866L7.5976 2.34853L7.59761 2.34854C7.90097 2.31158 8.20814 2.37401 8.47301 2.52646C8.73767 2.67878 8.94583 2.91276 9.06631 3.19333M9.06631 3.19333L9.06604 3.19272L8.9747 3.23343L9.06661 3.19402C9.06651 3.19379 9.06641 3.19356 9.06631 3.19333ZM9.06631 3.19333L11.0367 7.61397L11.037 7.61468C11.1308 7.82968 11.1696 8.06466 11.1499 8.29841C11.1302 8.53197 11.0526 8.75695 10.9243 8.95308M10.9243 8.95308C10.9244 8.95291 10.9245 8.95273 10.9246 8.95256L10.8403 8.89874L10.924 8.95353C10.9241 8.95338 10.9242 8.95323 10.9243 8.95308ZM10.9243 8.95308C10.9102 8.97505 10.8949 8.9962 10.8784 9.0164L10.8774 9.01757L10.8774 9.01756L8.91167 11.35M8.91167 11.35C8.91273 11.3469 8.91399 11.3438 8.91545 11.3408L8.82564 11.2969L8.9021 11.3613L8.91167 11.35ZM15.0456 13.0741C15.0458 13.074 15.0461 13.0738 15.0463 13.0737L15.1003 13.1578L15.0449 13.0746C15.0451 13.0744 15.0453 13.0743 15.0456 13.0741ZM16.5003 19.5875H16.5C9.83524 19.5875 4.41251 14.1648 4.41251 7.49999L4.41251 7.49967C4.40946 6.56202 4.74789 5.65534 5.36457 4.94902C5.97981 4.24435 6.83002 3.78721 7.75698 3.66249H7.77078C7.78814 3.66297 7.80498 3.6686 7.81913 3.67868C7.8335 3.68891 7.84444 3.70324 7.85052 3.71979L7.8503 3.71987L7.85312 3.72618L9.83125 8.14274L9.83124 8.14275L9.83164 8.14362C9.83691 8.15508 9.83963 8.16754 9.83963 8.18015C9.83963 8.18906 9.83827 8.19791 9.83561 8.20637L7.86765 10.5426C7.85004 10.5627 7.83395 10.584 7.81949 10.6064C7.68621 10.8099 7.60773 11.0443 7.59165 11.287C7.57556 11.5297 7.62242 11.7724 7.72767 11.9917L7.72797 11.9923C8.56947 13.7152 10.3015 15.4338 12.0428 16.275L12.0434 16.2753C12.2639 16.38 12.5078 16.4257 12.7513 16.4081C12.9948 16.3904 13.2296 16.3099 13.4327 16.1744L13.4337 16.1738C13.4534 16.1603 13.4738 16.1453 13.4937 16.1287L13.4945 16.128L15.7985 14.1676C15.8065 14.1643 15.815 14.1624 15.8237 14.1618C15.8345 14.1612 15.8453 14.1627 15.8555 14.1663L20.2822 16.1497L20.2822 16.1497L20.284 16.1504C20.3008 16.1576 20.315 16.1699 20.3245 16.1856C20.3337 16.2007 20.338 16.2182 20.337 16.2358C20.2137 17.1646 19.7567 18.0168 19.0513 18.6335C18.3451 19.2509 17.4383 19.59 16.5003 19.5875Z" fill="#A8A8A8" stroke="#A8A8A8" stroke-width="0.2"/>
</svg>
