<svg width="20" height="20" viewBox="0 0 20 20" fill="none" xmlns="http://www.w3.org/2000/svg">
<path d="M14.3862 10.9522L14.3862 10.9522L18.8141 12.9365C18.8142 12.9365 18.8144 12.9366 18.8145 12.9367C19.0931 13.0583 19.3251 13.2666 19.4759 13.5306C19.6268 13.7947 19.6883 14.1005 19.6515 14.4024L19.6513 14.4034C19.4869 15.6525 18.8734 16.799 17.9254 17.6288C16.9774 18.4586 15.7597 18.9149 14.4998 18.9125M14.3862 10.9522L6.90739 9.37562C6.90739 9.36687 6.90884 9.3582 6.91167 9.34996M14.3862 10.9522L14.3847 10.9515C14.1688 10.859 13.9331 10.8218 13.6992 10.8433C13.4655 10.8647 13.2409 10.9441 13.0456 11.0741M14.3862 10.9522L6.91545 9.41039C7.62633 10.857 9.15058 12.3723 10.6179 13.0809C10.6285 13.0856 10.6399 13.0878 10.6515 13.0874C10.6606 13.0871 10.6695 13.0851 10.6779 13.0817L12.9822 11.1218C12.9823 11.1216 12.9825 11.1215 12.9827 11.1213C13.0025 11.1041 13.0235 11.0883 13.0456 11.0741M14.4998 18.9125L14.5 18.8125V18.9125C14.4999 18.9125 14.4999 18.9125 14.4998 18.9125ZM14.4998 18.9125C7.10409 18.9124 1.08757 12.8958 1.08751 5.5001C1.08492 4.24019 1.54116 3.02245 2.37097 2.07441C3.20081 1.12635 4.34747 0.512885 5.59666 0.348658L5.5976 0.348535L5.59761 0.348539C5.90097 0.311582 6.20814 0.374012 6.47301 0.526459C6.73767 0.678781 6.94583 0.912763 7.06631 1.19333M7.06631 1.19333L7.06604 1.19272L6.9747 1.23343L7.06661 1.19402C7.06651 1.19379 7.06641 1.19356 7.06631 1.19333ZM7.06631 1.19333L9.03666 5.61397L9.03698 5.61468C9.1308 5.82968 9.16959 6.06466 9.14986 6.29841C9.13015 6.53197 9.05262 6.75695 8.92428 6.95308M8.92428 6.95308C8.92439 6.95291 8.92449 6.95273 8.9246 6.95256L8.84032 6.89874L8.92398 6.95353C8.92408 6.95338 8.92418 6.95323 8.92428 6.95308ZM8.92428 6.95308C8.91021 6.97505 8.89489 6.9962 8.87838 7.0164L8.87742 7.01757L8.87741 7.01756L6.91167 9.34996M6.91167 9.34996C6.91273 9.34686 6.91399 9.34381 6.91545 9.34085L6.82564 9.29687L6.9021 9.36131L6.91167 9.34996ZM13.0456 11.0741C13.0458 11.074 13.0461 11.0738 13.0463 11.0737L13.1003 11.1578L13.0449 11.0746C13.0451 11.0744 13.0453 11.0743 13.0456 11.0741ZM14.5003 17.5875H14.5C7.83524 17.5875 2.41251 12.1648 2.41251 5.49999L2.41251 5.49967C2.40946 4.56202 2.74789 3.65534 3.36457 2.94902C3.97981 2.24435 4.83002 1.78721 5.75698 1.66249H5.77078C5.78814 1.66297 5.80498 1.6686 5.81913 1.67868C5.8335 1.68891 5.84444 1.70324 5.85052 1.71979L5.8503 1.71987L5.85312 1.72618L7.83125 6.14274L7.83124 6.14275L7.83164 6.14362C7.83691 6.15508 7.83963 6.16754 7.83963 6.18015C7.83963 6.18906 7.83827 6.19791 7.83561 6.20637L5.86765 8.54258C5.85004 8.56265 5.83395 8.584 5.81949 8.60645C5.68621 8.80991 5.60773 9.04433 5.59165 9.28702C5.57556 9.52971 5.62242 9.77244 5.72767 9.99171L5.72797 9.99232C6.56947 11.7152 8.30153 13.4338 10.0428 14.275L10.0434 14.2753C10.2639 14.38 10.5078 14.4257 10.7513 14.4081C10.9948 14.3904 11.2296 14.3099 11.4327 14.1744L11.4337 14.1738C11.4534 14.1603 11.4738 14.1453 11.4937 14.1287L11.4945 14.128L13.7985 12.1676C13.8065 12.1643 13.815 12.1624 13.8237 12.1618C13.8345 12.1612 13.8453 12.1627 13.8555 12.1663L18.2822 14.1497L18.2822 14.1497L18.284 14.1504C18.3008 14.1576 18.315 14.1699 18.3245 14.1856C18.3337 14.2007 18.338 14.2182 18.337 14.2358C18.2137 15.1646 17.7567 16.0168 17.0513 16.6335C16.3451 17.2509 15.4383 17.59 14.5003 17.5875Z" fill="#A8A8A8" stroke="#A8A8A8" stroke-width="0.2"/>
</svg>
