<svg width="26" height="26" viewBox="0 0 26 26" fill="none" xmlns="http://www.w3.org/2000/svg">
<path fill-rule="evenodd" clip-rule="evenodd" d="M6.21033 2.21313C7.5291 0.901843 9.70051 1.13525 10.8048 2.6103L12.1708 4.43507C13.0693 5.63528 12.9901 7.31272 11.9235 8.37322L11.6648 8.63041C11.6535 8.66323 11.6261 8.76638 11.6566 8.96241C11.725 9.40386 12.0937 10.3403 13.6412 11.8791C15.1883 13.4173 16.1313 13.7856 16.579 13.8542C16.7819 13.8854 16.8881 13.8564 16.9209 13.8449L17.3629 13.4054C18.3111 12.4627 19.768 12.2864 20.9419 12.9246L23.0116 14.0497C24.7839 15.0131 25.2317 17.4222 23.7797 18.8659L22.2407 20.3961C21.7559 20.8782 21.1038 21.2803 20.308 21.3545C18.3483 21.5371 13.7785 21.304 8.97706 16.5298C4.49432 12.0725 3.63409 8.18555 3.52525 6.2704L4.33644 6.2243L3.52525 6.2704C3.47021 5.30199 3.92783 4.48267 4.50993 3.90388L6.21033 2.21313ZM9.50391 3.58416C8.95506 2.85102 7.93209 2.79273 7.3561 3.36545L5.6557 5.05619C5.29828 5.41158 5.12632 5.80324 5.14763 6.1782C5.23411 7.69985 5.92884 11.2073 10.1228 15.3775C14.5227 19.7524 18.5865 19.8829 20.1572 19.7365C20.4781 19.7066 20.7972 19.5398 21.095 19.2438L22.6339 17.7136C23.2595 17.0916 23.1215 15.959 22.2355 15.4774L20.1658 14.3523C19.5943 14.0416 18.9247 14.1441 18.5087 14.5577L18.0153 15.0483L17.4424 14.4722C18.0153 15.0483 18.0145 15.0491 18.0137 15.0499L18.0122 15.0514L18.0089 15.0547L18.0018 15.0614L17.986 15.0762C17.9746 15.0866 17.9615 15.098 17.9468 15.1102C17.9174 15.1345 17.8812 15.1621 17.838 15.1911C17.7512 15.2492 17.6367 15.3124 17.4928 15.366C17.1993 15.4753 16.8124 15.534 16.3327 15.4605C15.3937 15.3164 14.1497 14.6762 12.4955 13.0314C10.8418 11.3871 10.1962 10.1489 10.0508 9.21153C9.9764 8.7322 10.0357 8.34513 10.1463 8.05148C10.2006 7.90757 10.2645 7.79314 10.3231 7.70659C10.3524 7.66343 10.3802 7.62734 10.4048 7.59803C10.417 7.58338 10.4285 7.5704 10.439 7.55906L10.4538 7.54325L10.4606 7.53626L10.4639 7.53298L10.4655 7.5314C10.4662 7.53062 10.467 7.52985 11.0399 8.10601L10.467 7.52985L10.7777 7.2209C11.2421 6.75922 11.3071 5.99281 10.87 5.40893L9.50391 3.58416Z" fill="#2C2D3A"/>
</svg>
