<svg width="21" height="21" viewBox="0 0 21 21" fill="none" xmlns="http://www.w3.org/2000/svg">
<path d="M17.018 6.07305V8.26929C17.018 8.89052 16.388 9.29302 15.8017 9.07427C15.0667 8.80302 14.253 8.69804 13.3955 8.78552C11.313 9.01302 9.17797 11.0168 8.82796 13.0905C8.53918 14.8143 9.09046 16.4243 10.1492 17.5618C10.6305 18.0868 10.3067 18.9355 9.59797 19.0143C8.99422 19.0843 8.39918 19.0668 8.06668 18.8218L3.25418 15.2255C2.68543 14.7968 2.22168 13.8693 2.22168 13.1518V6.07305C2.22168 5.0843 2.97418 3.9993 3.89293 3.6493L8.70543 1.84679C9.20422 1.66305 10.0267 1.66305 10.5255 1.84679L15.338 3.6493C16.2655 3.9993 17.018 5.0843 17.018 6.07305Z" fill="#505050"/>
<path d="M14 10.0728C11.83 10.0728 10.0625 11.8403 10.0625 14.0103C10.0625 16.1803 11.83 17.9478 14 17.9478C16.17 17.9478 17.9375 16.1803 17.9375 14.0103C17.9375 11.8315 16.17 10.0728 14 10.0728Z" fill="#505050"/>
<path d="M18.375 19.2508C18.1387 19.2508 17.92 19.1545 17.7538 18.997C17.7188 18.9533 17.675 18.9095 17.6488 18.857C17.6138 18.8133 17.5875 18.7608 17.57 18.7083C17.5437 18.6558 17.5263 18.6033 17.5175 18.5508C17.5088 18.4895 17.5 18.437 17.5 18.3758C17.5 18.262 17.5262 18.1483 17.57 18.0433C17.6137 17.9295 17.675 17.842 17.7538 17.7545C17.955 17.5533 18.2613 17.457 18.5413 17.5183C18.6025 17.527 18.655 17.5445 18.7075 17.5708C18.76 17.5883 18.8125 17.6145 18.8562 17.6495C18.9087 17.6758 18.9525 17.7195 18.9962 17.7545C19.075 17.842 19.1362 17.9295 19.18 18.0433C19.2237 18.1483 19.25 18.262 19.25 18.3758C19.25 18.6033 19.1537 18.8308 18.9962 18.997C18.9525 19.032 18.9087 19.067 18.8562 19.102C18.8125 19.137 18.76 19.1633 18.7075 19.1808C18.655 19.207 18.6025 19.2245 18.5413 19.2333C18.4888 19.242 18.4275 19.2508 18.375 19.2508Z" fill="#505050"/>
</svg>
