<svg width="26" height="26" viewBox="0 0 26 26" fill="none" xmlns="http://www.w3.org/2000/svg">
<path fill-rule="evenodd" clip-rule="evenodd" d="M15.2788 3.15224C14.9085 3 14.439 3 13.5 3C12.561 3 12.0915 3 11.7212 3.15224C11.2274 3.35523 10.8351 3.74458 10.6306 4.23463C10.5372 4.45834 10.5006 4.7185 10.4863 5.09799C10.4653 5.65568 10.1772 6.17189 9.69017 6.45093C9.20318 6.72996 8.60864 6.71954 8.11149 6.45876C7.77318 6.2813 7.52789 6.18262 7.28599 6.15102C6.75609 6.08178 6.22018 6.22429 5.79616 6.5472C5.47814 6.78938 5.24339 7.1929 4.7739 7.99993C4.30441 8.80697 4.06967 9.21048 4.01735 9.60491C3.94758 10.1308 4.09118 10.6627 4.41655 11.0835C4.56506 11.2756 4.77377 11.437 5.0977 11.639C5.57391 11.936 5.88032 12.4419 5.88029 13C5.88026 13.5581 5.57386 14.0639 5.0977 14.3608C4.77372 14.5629 4.56497 14.7244 4.41645 14.9165C4.09108 15.3373 3.94749 15.8691 4.01725 16.395C4.06957 16.7894 4.30432 17.193 4.7738 18C5.24329 18.807 5.47804 19.2106 5.79606 19.4527C6.22008 19.7756 6.75599 19.9181 7.28589 19.8489C7.52778 19.8173 7.77305 19.7186 8.11133 19.5412C8.60852 19.2804 9.2031 19.27 9.69012 19.549C10.1771 19.8281 10.4653 20.3443 10.4863 20.9021C10.5006 21.2815 10.5372 21.5417 10.6306 21.7654C10.8351 22.2554 11.2274 22.6448 11.7212 22.8478C12.0915 23 12.561 23 13.5 23C14.439 23 14.9085 23 15.2788 22.8478C15.7726 22.6448 16.1649 22.2554 16.3694 21.7654C16.4628 21.5417 16.4994 21.2815 16.5137 20.902C16.5347 20.3443 16.8228 19.8281 17.3098 19.549C17.7968 19.2699 18.3914 19.2804 18.8886 19.5412C19.2269 19.7186 19.4721 19.8172 19.714 19.8488C20.2439 19.9181 20.7798 19.7756 21.2038 19.4527C21.5219 19.2105 21.7566 18.807 22.2261 17.9999C22.6956 17.1929 22.9303 16.7894 22.9827 16.395C23.0524 15.8691 22.9088 15.3372 22.5835 14.9164C22.4349 14.7243 22.2262 14.5628 21.9022 14.3608C21.4261 14.0639 21.1197 13.558 21.1197 12.9999C21.1197 12.4418 21.4261 11.9361 21.9022 11.6392C22.2263 11.4371 22.435 11.2757 22.5836 11.0835C22.9089 10.6627 23.0525 10.1309 22.9828 9.60497C22.9304 9.21055 22.6957 8.80703 22.2262 8C21.7567 7.19297 21.522 6.78945 21.2039 6.54727C20.7799 6.22436 20.244 6.08185 19.7141 6.15109C19.4722 6.18269 19.2269 6.28136 18.8887 6.4588C18.3915 6.71959 17.7969 6.73002 17.3099 6.45096C16.8229 6.17191 16.5347 5.65566 16.5136 5.09794C16.4993 4.71848 16.4628 4.45833 16.3694 4.23463C16.1649 3.74458 15.7726 3.35523 15.2788 3.15224ZM13.5 16C15.1695 16 16.5228 14.6569 16.5228 13C16.5228 11.3431 15.1695 10 13.5 10C11.8305 10 10.4772 11.3431 10.4772 13C10.4772 14.6569 11.8305 16 13.5 16Z" fill="#5151C6"/>
</svg>
