<svg width="25" height="24" viewBox="0 0 25 24" fill="none" xmlns="http://www.w3.org/2000/svg">
<path d="M12.5 2C9.88 2 7.75 4.13 7.75 6.75C7.75 9.32 9.76 11.4 12.38 11.49C12.46 11.48 12.54 11.48 12.6 11.49C12.62 11.49 12.63 11.49 12.65 11.49C12.66 11.49 12.66 11.49 12.67 11.49C15.23 11.4 17.24 9.32 17.25 6.75C17.25 4.13 15.12 2 12.5 2Z" fill="#505050"/>
<path d="M17.5809 14.1499C14.7909 12.2899 10.2409 12.2899 7.43094 14.1499C6.16094 14.9999 5.46094 16.1499 5.46094 17.3799C5.46094 18.6099 6.16094 19.7499 7.42094 20.5899C8.82094 21.5299 10.6609 21.9999 12.5009 21.9999C14.3409 21.9999 16.1809 21.5299 17.5809 20.5899C18.8409 19.7399 19.5409 18.5999 19.5409 17.3599C19.5309 16.1299 18.8409 14.9899 17.5809 14.1499Z" fill="#505050"/>
</svg>
