<svg width="17" height="19" viewBox="0 0 17 19" fill="none" xmlns="http://www.w3.org/2000/svg">
<path d="M16.2961 8.73027V4.88902C16.2961 4.17152 15.7536 3.35777 15.0798 3.08652L10.2061 1.09152C9.11233 0.645273 7.87858 0.645273 6.78483 1.09152L1.91111 3.08652C1.24611 3.35777 0.703613 4.17152 0.703613 4.88902V8.73027C0.703613 13.009 3.80986 17.0165 8.05358 18.189C8.34233 18.2678 8.65733 18.2678 8.94608 18.189C13.1898 17.0165 16.2961 13.009 16.2961 8.73027ZM9.15608 10.2615V12.5628C9.15608 12.9215 8.85858 13.219 8.49983 13.219C8.14108 13.219 7.84358 12.9215 7.84358 12.5628V10.2615C6.95983 9.98151 6.31236 9.15902 6.31236 8.18777C6.31236 6.98027 7.29233 6.00027 8.49983 6.00027C9.70733 6.00027 10.6873 6.98027 10.6873 8.18777C10.6873 9.16777 10.0398 9.98151 9.15608 10.2615Z" fill="#505050"/>
</svg>
