<svg width="22" height="23" viewBox="0 0 22 23" fill="none" xmlns="http://www.w3.org/2000/svg">
<path fill-rule="evenodd" clip-rule="evenodd" d="M20.0481 9.89762L18.1886 15.4761C16.8776 19.4092 16.222 21.3758 15.2607 21.9347C14.3462 22.4663 13.2168 22.4663 12.3023 21.9347C11.341 21.3758 10.6855 19.4092 9.37443 15.4761C9.16392 14.8445 9.05866 14.5288 8.88197 14.2648C8.71073 14.009 8.491 13.7893 8.23522 13.6181C7.97128 13.4414 7.65552 13.3361 7.02398 13.1256C3.0908 11.8146 1.1242 11.159 0.565355 10.1977C0.0337159 9.28325 0.0337161 8.1538 0.565356 7.23931C1.12421 6.27802 3.0908 5.62249 7.02398 4.31143L12.6024 2.45195C17.4757 0.827531 19.9123 0.0153238 21.1985 1.30153C22.4847 2.58774 21.6725 5.02436 20.0481 9.89762ZM12.1328 10.3108C11.8172 9.99172 11.8201 9.47728 12.1392 9.16174L16.7006 4.65062C17.0196 4.33508 17.534 4.33793 17.8496 4.65699C18.1651 4.97604 18.1623 5.49048 17.8432 5.80602L13.2818 10.3171C12.9628 10.6327 12.4483 10.6298 12.1328 10.3108Z" fill="white"/>
</svg>
