<svg width="18" height="24" viewBox="0 0 18 24" fill="none" xmlns="http://www.w3.org/2000/svg">
<path d="M15.0938 7.93712H9.8125V15.3004C9.8125 15.5159 9.7269 15.7226 9.57452 15.8749C9.42215 16.0273 9.21549 16.1129 9 16.1129C8.78451 16.1129 8.57785 16.0273 8.42548 15.8749C8.2731 15.7226 8.1875 15.5159 8.1875 15.3004V7.93712H2.90625C2.15229 7.93793 1.42944 8.2378 0.896306 8.77093C0.363174 9.30406 0.0633065 10.0269 0.0625 10.7809V20.5309C0.0633065 21.2848 0.363174 22.0077 0.896306 22.5408C1.42944 23.074 2.15229 23.3738 2.90625 23.3746H15.0938C15.8477 23.3738 16.5706 23.074 17.1037 22.5408C17.6368 22.0077 17.9367 21.2848 17.9375 20.5309V10.7809C17.9367 10.0269 17.6368 9.30406 17.1037 8.77093C16.5706 8.2378 15.8477 7.93793 15.0938 7.93712ZM9.8125 3.3988L12.4882 6.07396C12.6418 6.2199 12.8463 6.30006 13.0582 6.29735C13.2701 6.29464 13.4725 6.20926 13.6223 6.05944C13.7721 5.90961 13.8575 5.70719 13.8602 5.49532C13.8629 5.28345 13.7828 5.0789 13.6368 4.92529L9.57434 0.862787C9.42198 0.710529 9.2154 0.625 9 0.625C8.7846 0.625 8.57802 0.710529 8.42566 0.862787L4.36316 4.92529C4.21722 5.0789 4.13706 5.28345 4.13978 5.49532C4.14249 5.70719 4.22786 5.90961 4.37769 6.05944C4.52751 6.20926 4.72994 6.29464 4.94181 6.29735C5.15368 6.30006 5.35822 6.2199 5.51184 6.07396L8.1875 3.3988V7.93712H9.8125V3.3988Z" fill="#5151C6"/>
</svg>
