<svg width="26" height="26" viewBox="0 0 26 26" fill="none" xmlns="http://www.w3.org/2000/svg">
<path d="M22.4348 8.79579V18.99C22.4348 21.655 20.2573 23.8325 17.5923 23.8325H8.40561C5.74061 23.8325 3.56311 21.655 3.56311 18.99V8.79579C3.56311 6.94329 4.60311 5.32912 6.13061 4.51662C6.66144 4.23496 7.32228 4.61412 7.32228 5.22079C7.32228 6.94329 8.73061 8.35162 10.4531 8.35162H15.5448C17.2673 8.35162 18.6757 6.94329 18.6757 5.22079C18.6757 4.61412 19.3257 4.23496 19.8673 4.51662C21.3948 5.32912 22.4348 6.94329 22.4348 8.79579Z" fill="#5151C6"/>
<path d="M15.5456 2.16699H10.4539C9.32721 2.16699 8.40637 3.07699 8.40637 4.20366V5.22199C8.40637 6.34866 9.31637 7.25866 10.443 7.25866H15.5456C16.6722 7.25866 17.5822 6.34866 17.5822 5.22199V4.20366C17.5931 3.07699 16.6722 2.16699 15.5456 2.16699Z" fill="#5151C6"/>
</svg>
