<svg width="268" height="178" viewBox="0 0 268 178" fill="none" xmlns="http://www.w3.org/2000/svg">
<g clip-path="url(#clip0_1_100)">
<path d="M96.1317 102.441C105.316 86.2937 122.836 73.8956 141.381 75.0899C127.701 89.9575 119.724 109.182 118.862 129.362C118.557 137.145 119.029 145.834 113.858 151.663C110.641 155.289 105.722 157.046 100.887 157.414C96.051 157.782 91.2163 156.909 86.4451 156.04L85.2877 156.395C84.8471 137.826 86.9473 118.587 96.1317 102.441Z" fill="#F0F0F0"/>
<path d="M141.409 75.4787C127.695 82.0769 116.001 93.0967 108.822 106.536C107.27 109.442 105.949 112.524 105.372 115.783C104.796 119.044 105.198 122.148 106.313 125.245C107.331 128.076 108.702 130.854 109.014 133.883C109.343 137.076 108.168 140.062 106.051 142.432C103.462 145.331 99.9854 147.127 96.524 148.766C92.6809 150.586 88.6602 152.415 85.9381 155.811C85.6083 156.222 84.9888 155.687 85.3181 155.276C90.054 149.367 98.1606 148.257 103.782 143.497C106.405 141.276 108.375 138.252 108.25 134.708C108.142 131.61 106.731 128.744 105.675 125.886C104.566 122.885 104.013 119.868 104.41 116.669C104.817 113.396 106.021 110.256 107.492 107.323C110.809 100.71 115.349 94.6382 120.549 89.3896C126.526 83.3565 133.491 78.3897 141.144 74.7041C141.617 74.4761 141.88 75.2522 141.409 75.4787Z" fill="white"/>
<path d="M110.925 102.045C108.822 100.508 107.335 98.275 106.728 95.7436C106.121 93.2123 106.434 90.5477 107.611 88.2258C107.851 87.7568 108.592 88.1073 108.351 88.5769C107.251 90.737 106.96 93.2191 107.53 95.5751C108.1 97.9311 109.494 100.006 111.46 101.425C111.887 101.734 111.349 102.352 110.925 102.045Z" fill="white"/>
<path d="M105.607 123.877C110.875 123.108 115.66 120.382 119.007 116.244C119.338 115.834 119.958 116.369 119.627 116.779C116.136 121.079 111.151 123.905 105.667 124.694C105.144 124.768 105.087 123.951 105.607 123.877Z" fill="white"/>
<path d="M126.93 84.3638C127.62 85.1277 128.488 85.7085 129.458 86.054C130.428 86.3994 131.468 86.4988 132.486 86.3432C133.007 86.2618 133.064 87.0787 132.546 87.1596C131.421 87.3263 130.272 87.2151 129.2 86.8358C128.127 86.4565 127.165 85.8205 126.395 84.9835C126.316 84.9107 126.268 84.8105 126.26 84.7032C126.252 84.596 126.285 84.4898 126.353 84.4062C126.424 84.3245 126.525 84.2742 126.633 84.2663C126.741 84.2584 126.848 84.2934 126.93 84.3638Z" fill="white"/>
<path d="M178.282 126.027C177.958 126.088 177.633 126.148 177.306 126.214C172.951 127.044 168.671 128.227 164.508 129.75C164.185 129.862 163.858 129.981 163.538 130.103C153.548 133.879 144.345 139.476 136.399 146.609C133.239 149.451 130.301 152.528 127.608 155.815C123.89 160.355 120.221 165.573 115.363 168.533C114.859 168.847 114.337 169.13 113.798 169.38L85.811 157.778C85.7606 157.72 85.7073 157.668 85.6566 157.61L84.518 157.197C84.645 157.018 84.7806 156.835 84.9076 156.656C84.9808 156.552 85.0603 156.45 85.1335 156.346C85.1843 156.277 85.2355 156.208 85.2774 156.143C85.2942 156.121 85.3113 156.098 85.3255 156.081C85.3674 156.016 85.4133 155.96 85.4525 155.902C86.2075 154.876 86.9711 153.854 87.7431 152.835C87.7458 152.829 87.7458 152.829 87.7547 152.825C93.6573 145.077 100.259 137.754 107.763 131.664C107.989 131.481 108.217 131.292 108.456 131.114C111.853 128.388 115.468 125.944 119.264 123.807C121.347 122.643 123.487 121.585 125.676 120.638C131.338 118.201 137.348 116.669 143.486 116.098C155.722 114.963 168.186 117.751 177.571 125.433C177.81 125.63 178.045 125.824 178.282 126.027Z" fill="#F0F0F0"/>
<path d="M178.072 126.356C163.146 123.373 147.171 125.135 133.343 131.546C130.353 132.932 127.441 134.598 125.018 136.853C122.593 139.11 121.045 141.831 120.069 144.974C119.177 147.847 118.597 150.89 117.022 153.497C115.361 156.244 112.624 157.921 109.507 158.539C105.693 159.296 101.834 158.639 98.0835 157.864C93.9188 157.005 89.6066 156.046 85.3874 157.119C84.8762 157.249 84.7041 156.449 85.2146 156.319C92.5552 154.451 99.697 158.442 107.053 158.025C110.485 157.83 113.879 156.6 115.915 153.696C117.695 151.156 118.295 148.019 119.174 145.102C120.096 142.039 121.472 139.297 123.716 136.982C126.013 134.614 128.866 132.83 131.807 131.374C138.439 128.09 145.722 125.973 153.036 124.912C161.442 123.691 169.996 123.916 178.326 125.578C178.842 125.681 178.584 126.459 178.072 126.356Z" fill="white"/>
<path d="M137.728 129.225C136.975 126.733 137.132 124.055 138.173 121.669C139.213 119.282 141.068 117.343 143.407 116.198C143.881 115.967 144.261 116.693 143.786 116.923C141.607 117.986 139.879 119.792 138.914 122.017C137.95 124.241 137.813 126.736 138.528 129.052C138.683 129.556 137.882 129.726 137.728 129.225Z" fill="white"/>
<path d="M120.329 143.457C124.999 146.013 130.461 146.716 135.627 145.425C136.138 145.297 136.311 146.097 135.8 146.225C130.422 147.558 124.739 146.815 119.885 144.145C119.423 143.89 119.869 143.204 120.329 143.457Z" fill="white"/>
<path d="M161.159 124.739C161.249 125.763 161.593 126.75 162.159 127.609C162.725 128.468 163.495 129.174 164.402 129.662C164.867 129.911 164.42 130.597 163.958 130.35C162.959 129.806 162.109 129.026 161.481 128.078C160.854 127.13 160.468 126.043 160.358 124.911C160.339 124.806 160.36 124.696 160.419 124.606C160.477 124.516 160.567 124.451 160.672 124.425C160.778 124.403 160.889 124.423 160.98 124.482C161.071 124.541 161.135 124.633 161.159 124.739Z" fill="white"/>
<path d="M124.968 145.168C121.048 126.228 116.149 119.913 116.149 119.913L114.277 118.462L112.026 116.715L112.037 116.49L111.503 116.309L111.378 116.212L111.172 116.054L111.139 116.089L111.07 116.162L100.884 112.701L87.962 108.315L81.9782 100.542C81.0037 99.2756 79.749 98.2524 78.3126 97.5522C76.8762 96.852 75.297 96.4937 73.6988 96.5055L54.5887 96.6469C52.0048 96.666 49.5215 97.6504 47.627 99.4066L35.0663 111.051L15.4941 120.393L15.4611 120.36L15.2556 120.507L12.2315 121.952L12.3563 122.601L10.4846 123.951C10.4846 123.951 5.58515 129.827 1.66558 147.451C0.668489 151.935 0.177683 161.554 0.000528359 173.408C-0.0083701 174.008 0.1021 174.603 0.325513 175.16C0.548926 175.717 0.880826 176.223 1.30191 176.65C1.723 177.078 2.22488 177.417 2.77836 177.649C3.33184 177.88 3.92588 178 4.52594 178H109.064L122.112 178C122.712 178 123.305 177.88 123.859 177.649C124.412 177.418 124.913 177.079 125.334 176.652C125.755 176.225 126.087 175.719 126.311 175.163C126.535 174.607 126.646 174.012 126.638 173.413C126.465 160.514 125.974 150.031 124.968 145.168Z" fill="#3F3D56"/>
<path d="M138.381 16.5177C134.313 16.5177 130.413 18.1325 127.537 21.0067C124.661 23.8809 123.045 27.7792 123.045 31.844C123.045 35.9087 124.661 39.807 127.537 42.6813C130.413 45.5555 134.313 47.1702 138.381 47.1702H252.665C256.732 47.1702 260.632 45.5555 263.508 42.6813C266.384 39.807 268 35.9087 268 31.844C268 27.7792 266.384 23.8809 263.508 21.0067C260.632 18.1325 256.732 16.5177 252.665 16.5177H138.381Z" fill="#E5E5E5"/>
<path d="M138.381 19.6195C135.137 19.6195 132.025 20.9074 129.732 23.1999C127.438 25.4925 126.149 28.6018 126.149 31.844C126.149 35.0861 127.438 38.1955 129.732 40.488C132.025 42.7805 135.137 44.0685 138.381 44.0685H252.665C255.909 44.0685 259.02 42.7805 261.314 40.488C263.608 38.1955 264.896 35.0861 264.896 31.844C264.896 28.6018 263.608 25.4925 261.314 23.1999C259.02 20.9074 255.909 19.6195 252.665 19.6195H138.381Z" fill="white"/>
<path d="M67.1448 89.3305C80.9719 89.3305 92.1809 78.128 92.1809 64.3091C92.1809 50.4902 80.9719 39.2877 67.1448 39.2877C53.3178 39.2877 42.1087 50.4902 42.1087 64.3091C42.1087 78.128 53.3178 89.3305 67.1448 89.3305Z" fill="#9E616A"/>
<path d="M60.7401 88.1053C60.6331 87.87 60.5265 87.6338 60.4201 87.3969C60.4611 87.3982 60.5017 87.4041 60.5427 87.4051L60.7401 88.1053Z" fill="#2F2E41"/>
<path d="M41.4125 40.4255C42.6787 39.416 44.1587 38.4871 45.7776 38.5394C47.3966 38.5915 49.0383 40.0528 48.7029 41.6366C51.6765 36.3745 56.4097 32.3274 62.0716 30.2056C67.7335 28.0838 73.9623 28.0229 79.6646 30.0336C83.6884 31.4523 87.6343 34.2907 88.5586 38.4538C88.7959 39.5224 88.8468 40.6942 89.5145 41.562C90.3563 42.6561 91.9669 42.9037 93.2931 42.5188C93.3064 42.5149 93.3196 42.511 93.3328 42.5071C93.5569 42.4306 93.7987 42.4231 94.0271 42.4855C94.2554 42.5479 94.4598 42.6773 94.6137 42.8571C94.7677 43.0368 94.8641 43.2586 94.8906 43.4937C94.917 43.7289 94.8723 43.9665 94.7621 44.1759L93.6236 46.298C95.0588 46.6177 96.55 46.586 97.9703 46.2056C98.2062 46.1438 98.4555 46.1564 98.684 46.2418C98.9125 46.3271 99.1089 46.481 99.2464 46.6824C99.3839 46.8838 99.4557 47.1227 99.4519 47.3664C99.4481 47.6102 99.369 47.8468 99.2254 48.0438C95.4713 53.1949 89.1994 56.5213 82.7991 56.4822C78.2501 56.4545 73.6543 54.8876 69.2272 55.9331C67.5145 56.3375 65.9141 57.1201 64.5435 58.2233C63.1729 59.3265 62.0668 60.7224 61.3064 62.3085C60.546 63.8947 60.1506 65.6309 60.1491 67.3897C60.1476 69.1485 60.5402 70.8853 61.298 72.4727C59.9379 70.986 57.3088 71.338 55.9176 72.7957C54.5265 74.2534 54.1663 76.4291 54.3065 78.4387C54.5208 81.5123 55.7258 84.4084 56.9961 87.2272C46.346 86.8921 36.2727 79.4257 32.8821 69.3271C29.4772 59.1862 33.0456 47.0961 41.4125 40.4255Z" fill="#2F2E41"/>
<path opacity="0.2" d="M24.642 139.45L31.6641 177.633L35.8775 178L24.642 139.45Z" fill="black"/>
<path opacity="0.2" d="M101.991 136.57L94.9694 177.606L90.756 178L101.991 136.57Z" fill="black"/>
<path d="M47.4018 27.5751C46.0554 28.1369 44.6505 27.5212 44.0613 26.111C43.4631 24.6793 44.0218 23.2259 45.3898 22.655C46.7579 22.0841 48.1377 22.7013 48.7456 24.1562C49.3443 25.5892 48.7917 26.995 47.4018 27.5751ZM44.8227 19.8369L43.7521 20.2836C43.4847 20.3939 43.1856 20.3998 42.914 20.3003C42.6424 20.2007 42.418 20.0029 42.2854 19.746L42.2324 19.6425C41.0806 17.5663 40.9487 15.043 41.8425 12.1467C42.6705 9.54855 43.0145 7.72127 42.3228 6.06585C41.5231 4.15189 39.8155 3.55233 37.6379 4.42085C36.7934 4.77331 36.5246 4.76769 35.86 5.42663C35.7154 5.57171 35.5431 5.6862 35.3533 5.76329C35.1635 5.84037 34.9601 5.87847 34.7552 5.8753C34.5572 5.87297 34.3617 5.83081 34.1803 5.75133C33.9989 5.67185 33.8354 5.55667 33.6995 5.41268C33.4377 5.13518 33.2911 4.76873 33.2891 4.38735C33.2872 4.00597 33.4302 3.63807 33.6891 3.35794C34.8063 2.1892 36.1537 1.26457 37.6464 0.642415C42.3251 -1.3101 44.6803 1.57251 45.7581 4.15216C46.8124 6.67537 46.2193 9.01647 45.2665 12.0484C44.468 14.5678 44.5145 16.4347 45.4216 18.2909C45.487 18.4312 45.5235 18.5833 45.5287 18.738C45.5339 18.8928 45.5077 19.047 45.4518 19.1914C45.3958 19.3358 45.3113 19.4674 45.2032 19.5783C45.0951 19.6892 44.9656 19.7772 44.8227 19.8369Z" fill="#5151C6"/>
<path d="M163.625 39.1535H140.886C140.814 39.154 140.742 39.1402 140.675 39.1129C140.609 39.0857 140.548 39.0454 140.497 38.9945C140.445 38.9437 140.405 38.8832 140.377 38.8165C140.349 38.7499 140.335 38.6784 140.335 38.6062C140.335 38.534 140.349 38.4625 140.377 38.3958C140.405 38.3292 140.445 38.2687 140.497 38.2178C140.548 38.1669 140.609 38.1267 140.675 38.0994C140.742 38.0721 140.814 38.0583 140.886 38.0588H163.625C163.769 38.0598 163.907 38.1179 164.009 38.2204C164.111 38.323 164.168 38.4616 164.168 38.6062C164.168 38.7507 164.111 38.8894 164.009 38.9919C163.907 39.0944 163.769 39.1526 163.625 39.1535Z" fill="#5151C6"/>
<path d="M192.469 39.336H169.731C169.659 39.3365 169.587 39.3227 169.52 39.2954C169.453 39.2681 169.393 39.2279 169.341 39.177C169.29 39.1261 169.249 39.0656 169.222 38.999C169.194 38.9323 169.18 38.8608 169.18 38.7886C169.18 38.7164 169.194 38.6449 169.222 38.5783C169.249 38.5116 169.29 38.4511 169.341 38.4002C169.393 38.3494 169.453 38.3091 169.52 38.2818C169.587 38.2546 169.659 38.2408 169.731 38.2413H192.469C192.542 38.2408 192.613 38.2546 192.68 38.2818C192.747 38.3091 192.808 38.3494 192.859 38.4002C192.91 38.4511 192.951 38.5116 192.979 38.5783C193.007 38.6449 193.021 38.7164 193.021 38.7886C193.021 38.8608 193.007 38.9323 192.979 38.999C192.951 39.0656 192.91 39.1261 192.859 39.177C192.808 39.2279 192.747 39.2681 192.68 39.2954C192.613 39.3227 192.542 39.3365 192.469 39.336Z" fill="#5151C6"/>
<path d="M221.314 39.5184H198.576C198.431 39.5175 198.293 39.4593 198.191 39.3568C198.089 39.2543 198.032 39.1156 198.032 38.9711C198.032 38.8265 198.089 38.6879 198.191 38.5853C198.293 38.4828 198.431 38.4247 198.576 38.4237H221.314C221.386 38.4232 221.458 38.437 221.525 38.4643C221.592 38.4916 221.653 38.5318 221.704 38.5827C221.755 38.6336 221.796 38.6941 221.824 38.7607C221.851 38.8274 221.866 38.8989 221.866 38.9711C221.866 39.0433 221.851 39.1147 221.824 39.1814C221.796 39.2481 221.755 39.3086 221.704 39.3594C221.653 39.4103 221.592 39.4506 221.525 39.4778C221.458 39.5051 221.387 39.5189 221.314 39.5184Z" fill="#5151C6"/>
<path d="M250.159 39.7009H227.421C227.276 39.6999 227.138 39.6418 227.036 39.5393C226.934 39.4367 226.877 39.298 226.877 39.1535C226.877 39.009 226.934 38.8703 227.036 38.7678C227.138 38.6652 227.276 38.6071 227.421 38.6062H250.159C250.304 38.6071 250.442 38.6652 250.544 38.7678C250.646 38.8703 250.703 39.009 250.703 39.1535C250.703 39.298 250.646 39.4367 250.544 39.5393C250.442 39.6418 250.304 39.6999 250.159 39.7009Z" fill="#5151C6"/>
<path d="M152.205 34.1161C154.539 34.1161 156.431 32.2251 156.431 29.8925C156.431 27.5598 154.539 25.6689 152.205 25.6689C149.871 25.6689 147.979 27.5598 147.979 29.8925C147.979 32.2251 149.871 34.1161 152.205 34.1161Z" fill="#5151C6"/>
<path d="M181.224 34.1161C183.558 34.1161 185.451 32.2251 185.451 29.8925C185.451 27.5598 183.558 25.6689 181.224 25.6689C178.89 25.6689 176.998 27.5598 176.998 29.8925C176.998 32.2251 178.89 34.1161 181.224 34.1161Z" fill="#5151C6"/>
<path d="M210.244 34.1161C212.578 34.1161 214.47 32.2251 214.47 29.8925C214.47 27.5598 212.578 25.6689 210.244 25.6689C207.91 25.6689 206.017 27.5598 206.017 29.8925C206.017 32.2251 207.91 34.1161 210.244 34.1161Z" fill="#5151C6"/>
<path d="M239.263 34.1161C241.597 34.1161 243.489 32.2251 243.489 29.8925C243.489 27.5598 241.597 25.6689 239.263 25.6689C236.929 25.6689 235.037 27.5598 235.037 29.8925C235.037 32.2251 236.929 34.1161 239.263 34.1161Z" fill="#5151C6"/>
</g>
<defs>
<clipPath id="clip0_1_100">
<rect width="268" height="178" fill="white"/>
</clipPath>
</defs>
</svg>
